<mxfile host="app.diagrams.net" agent="Mozilla/5.0 (Windows NT 10.0; Win64; x64) AppleWebKit/537.36 (KHTML, like Gecko) Chrome/128.0.0.0 Safari/537.36" version="24.7.8">
  <diagram id="C5RBs43oDa-KdzZeNtuy" name="Page-1">
    <mxGraphModel dx="2867" dy="1238" grid="1" gridSize="10" guides="1" tooltips="1" connect="1" arrows="1" fold="1" page="1" pageScale="1" pageWidth="827" pageHeight="1169" math="0" shadow="0">
      <root>
        <mxCell id="WIyWlLk6GJQsqaUBKTNV-0" />
        <mxCell id="WIyWlLk6GJQsqaUBKTNV-1" parent="WIyWlLk6GJQsqaUBKTNV-0" />
        <mxCell id="AtkAbLoTb4NKZcEU7tps-4" value="User" style="swimlane;fontStyle=1;align=center;verticalAlign=top;childLayout=stackLayout;horizontal=1;startSize=29.149999618530273;horizontalStack=0;resizeParent=1;resizeParentMax=0;resizeLast=0;collapsible=0;marginBottom=0;" vertex="1" parent="WIyWlLk6GJQsqaUBKTNV-1">
          <mxGeometry x="221" y="660" width="173" height="124.14999961853027" as="geometry" />
        </mxCell>
        <mxCell id="AtkAbLoTb4NKZcEU7tps-5" value="+String name" style="text;strokeColor=none;fillColor=none;align=left;verticalAlign=top;spacingLeft=4;spacingRight=4;overflow=hidden;rotatable=0;points=[[0,0.5],[1,0.5]];portConstraint=eastwest;" vertex="1" parent="AtkAbLoTb4NKZcEU7tps-4">
          <mxGeometry y="29.149999618530273" width="173" height="29" as="geometry" />
        </mxCell>
        <mxCell id="AtkAbLoTb4NKZcEU7tps-6" value="+String contactDetails" style="text;strokeColor=none;fillColor=none;align=left;verticalAlign=top;spacingLeft=4;spacingRight=4;overflow=hidden;rotatable=0;points=[[0,0.5],[1,0.5]];portConstraint=eastwest;" vertex="1" parent="AtkAbLoTb4NKZcEU7tps-4">
          <mxGeometry y="58.14999961853027" width="173" height="29" as="geometry" />
        </mxCell>
        <mxCell id="AtkAbLoTb4NKZcEU7tps-7" style="line;strokeWidth=1;fillColor=none;align=left;verticalAlign=middle;spacingTop=-1;spacingLeft=3;spacingRight=3;rotatable=0;labelPosition=right;points=[];portConstraint=eastwest;strokeColor=inherit;" vertex="1" parent="AtkAbLoTb4NKZcEU7tps-4">
          <mxGeometry y="87.14999961853027" width="173" height="8" as="geometry" />
        </mxCell>
        <mxCell id="AtkAbLoTb4NKZcEU7tps-8" value="+register()" style="text;strokeColor=none;fillColor=none;align=left;verticalAlign=top;spacingLeft=4;spacingRight=4;overflow=hidden;rotatable=0;points=[[0,0.5],[1,0.5]];portConstraint=eastwest;" vertex="1" parent="AtkAbLoTb4NKZcEU7tps-4">
          <mxGeometry y="95.14999961853027" width="173" height="29" as="geometry" />
        </mxCell>
        <mxCell id="AtkAbLoTb4NKZcEU7tps-9" value="Taxi" style="swimlane;fontStyle=1;align=center;verticalAlign=top;childLayout=stackLayout;horizontal=1;startSize=25.774999618530273;horizontalStack=0;resizeParent=1;resizeParentMax=0;resizeLast=0;collapsible=0;marginBottom=0;" vertex="1" parent="WIyWlLk6GJQsqaUBKTNV-1">
          <mxGeometry x="475" y="1432" width="161" height="215.77499961853027" as="geometry" />
        </mxCell>
        <mxCell id="AtkAbLoTb4NKZcEU7tps-10" value="+String id" style="text;strokeColor=none;fillColor=none;align=left;verticalAlign=top;spacingLeft=4;spacingRight=4;overflow=hidden;rotatable=0;points=[[0,0.5],[1,0.5]];portConstraint=eastwest;" vertex="1" parent="AtkAbLoTb4NKZcEU7tps-9">
          <mxGeometry y="25.774999618530273" width="161" height="26" as="geometry" />
        </mxCell>
        <mxCell id="AtkAbLoTb4NKZcEU7tps-11" value="+String vehicleType" style="text;strokeColor=none;fillColor=none;align=left;verticalAlign=top;spacingLeft=4;spacingRight=4;overflow=hidden;rotatable=0;points=[[0,0.5],[1,0.5]];portConstraint=eastwest;" vertex="1" parent="AtkAbLoTb4NKZcEU7tps-9">
          <mxGeometry y="51.77499961853027" width="161" height="26" as="geometry" />
        </mxCell>
        <mxCell id="AtkAbLoTb4NKZcEU7tps-12" value="+String licensePlate" style="text;strokeColor=none;fillColor=none;align=left;verticalAlign=top;spacingLeft=4;spacingRight=4;overflow=hidden;rotatable=0;points=[[0,0.5],[1,0.5]];portConstraint=eastwest;" vertex="1" parent="AtkAbLoTb4NKZcEU7tps-9">
          <mxGeometry y="77.77499961853027" width="161" height="26" as="geometry" />
        </mxCell>
        <mxCell id="AtkAbLoTb4NKZcEU7tps-13" value="+String location" style="text;strokeColor=none;fillColor=none;align=left;verticalAlign=top;spacingLeft=4;spacingRight=4;overflow=hidden;rotatable=0;points=[[0,0.5],[1,0.5]];portConstraint=eastwest;" vertex="1" parent="AtkAbLoTb4NKZcEU7tps-9">
          <mxGeometry y="103.77499961853027" width="161" height="26" as="geometry" />
        </mxCell>
        <mxCell id="AtkAbLoTb4NKZcEU7tps-14" value="+Boolean isAvailable" style="text;strokeColor=none;fillColor=none;align=left;verticalAlign=top;spacingLeft=4;spacingRight=4;overflow=hidden;rotatable=0;points=[[0,0.5],[1,0.5]];portConstraint=eastwest;" vertex="1" parent="AtkAbLoTb4NKZcEU7tps-9">
          <mxGeometry y="129.77499961853027" width="161" height="26" as="geometry" />
        </mxCell>
        <mxCell id="AtkAbLoTb4NKZcEU7tps-15" value="+String status" style="text;strokeColor=none;fillColor=none;align=left;verticalAlign=top;spacingLeft=4;spacingRight=4;overflow=hidden;rotatable=0;points=[[0,0.5],[1,0.5]];portConstraint=eastwest;" vertex="1" parent="AtkAbLoTb4NKZcEU7tps-9">
          <mxGeometry y="155.77499961853027" width="161" height="26" as="geometry" />
        </mxCell>
        <mxCell id="AtkAbLoTb4NKZcEU7tps-16" style="line;strokeWidth=1;fillColor=none;align=left;verticalAlign=middle;spacingTop=-1;spacingLeft=3;spacingRight=3;rotatable=0;labelPosition=right;points=[];portConstraint=eastwest;strokeColor=inherit;" vertex="1" parent="AtkAbLoTb4NKZcEU7tps-9">
          <mxGeometry y="181.77499961853027" width="161" height="8" as="geometry" />
        </mxCell>
        <mxCell id="AtkAbLoTb4NKZcEU7tps-17" value="+assignToQueue()" style="text;strokeColor=none;fillColor=none;align=left;verticalAlign=top;spacingLeft=4;spacingRight=4;overflow=hidden;rotatable=0;points=[[0,0.5],[1,0.5]];portConstraint=eastwest;" vertex="1" parent="AtkAbLoTb4NKZcEU7tps-9">
          <mxGeometry y="189.77499961853027" width="161" height="26" as="geometry" />
        </mxCell>
        <mxCell id="AtkAbLoTb4NKZcEU7tps-18" value="QueueManagement" style="swimlane;fontStyle=1;align=center;verticalAlign=top;childLayout=stackLayout;horizontal=1;startSize=26.91428484235491;horizontalStack=0;resizeParent=1;resizeParentMax=0;resizeLast=0;collapsible=0;marginBottom=0;" vertex="1" parent="WIyWlLk6GJQsqaUBKTNV-1">
          <mxGeometry x="130" y="1068" width="175" height="88.9142848423549" as="geometry" />
        </mxCell>
        <mxCell id="AtkAbLoTb4NKZcEU7tps-19" style="line;strokeWidth=1;fillColor=none;align=left;verticalAlign=middle;spacingTop=-1;spacingLeft=3;spacingRight=3;rotatable=0;labelPosition=right;points=[];portConstraint=eastwest;strokeColor=inherit;" vertex="1" parent="AtkAbLoTb4NKZcEU7tps-18">
          <mxGeometry y="26.91428484235491" width="175" height="8" as="geometry" />
        </mxCell>
        <mxCell id="AtkAbLoTb4NKZcEU7tps-20" value="+manageQueue()" style="text;strokeColor=none;fillColor=none;align=left;verticalAlign=top;spacingLeft=4;spacingRight=4;overflow=hidden;rotatable=0;points=[[0,0.5],[1,0.5]];portConstraint=eastwest;" vertex="1" parent="AtkAbLoTb4NKZcEU7tps-18">
          <mxGeometry y="34.91428484235491" width="175" height="27" as="geometry" />
        </mxCell>
        <mxCell id="AtkAbLoTb4NKZcEU7tps-21" value="+reportQueueLength()" style="text;strokeColor=none;fillColor=none;align=left;verticalAlign=top;spacingLeft=4;spacingRight=4;overflow=hidden;rotatable=0;points=[[0,0.5],[1,0.5]];portConstraint=eastwest;" vertex="1" parent="AtkAbLoTb4NKZcEU7tps-18">
          <mxGeometry y="61.91428484235491" width="175" height="27" as="geometry" />
        </mxCell>
        <mxCell id="AtkAbLoTb4NKZcEU7tps-22" value="DispatchSystem" style="swimlane;fontStyle=1;align=center;verticalAlign=top;childLayout=stackLayout;horizontal=1;startSize=26.91428484235491;horizontalStack=0;resizeParent=1;resizeParentMax=0;resizeLast=0;collapsible=0;marginBottom=0;" vertex="1" parent="WIyWlLk6GJQsqaUBKTNV-1">
          <mxGeometry x="71" y="1250" width="293" height="88.9142848423549" as="geometry" />
        </mxCell>
        <mxCell id="AtkAbLoTb4NKZcEU7tps-23" style="line;strokeWidth=1;fillColor=none;align=left;verticalAlign=middle;spacingTop=-1;spacingLeft=3;spacingRight=3;rotatable=0;labelPosition=right;points=[];portConstraint=eastwest;strokeColor=inherit;" vertex="1" parent="AtkAbLoTb4NKZcEU7tps-22">
          <mxGeometry y="26.91428484235491" width="293" height="8" as="geometry" />
        </mxCell>
        <mxCell id="AtkAbLoTb4NKZcEU7tps-24" value="+searchAvailableTaxi() : : Taxi" style="text;strokeColor=none;fillColor=none;align=left;verticalAlign=top;spacingLeft=4;spacingRight=4;overflow=hidden;rotatable=0;points=[[0,0.5],[1,0.5]];portConstraint=eastwest;" vertex="1" parent="AtkAbLoTb4NKZcEU7tps-22">
          <mxGeometry y="34.91428484235491" width="293" height="27" as="geometry" />
        </mxCell>
        <mxCell id="AtkAbLoTb4NKZcEU7tps-25" value="+assignTaxi(taxi: Taxi, location: String)" style="text;strokeColor=none;fillColor=none;align=left;verticalAlign=top;spacingLeft=4;spacingRight=4;overflow=hidden;rotatable=0;points=[[0,0.5],[1,0.5]];portConstraint=eastwest;" vertex="1" parent="AtkAbLoTb4NKZcEU7tps-22">
          <mxGeometry y="61.91428484235491" width="293" height="27" as="geometry" />
        </mxCell>
        <mxCell id="AtkAbLoTb4NKZcEU7tps-26" value="NotificationSystem" style="swimlane;fontStyle=1;align=center;verticalAlign=top;childLayout=stackLayout;horizontal=1;startSize=26.91428484235491;horizontalStack=0;resizeParent=1;resizeParentMax=0;resizeLast=0;collapsible=0;marginBottom=0;" vertex="1" parent="WIyWlLk6GJQsqaUBKTNV-1">
          <mxGeometry x="20" y="1488" width="394" height="88.9142848423549" as="geometry" />
        </mxCell>
        <mxCell id="AtkAbLoTb4NKZcEU7tps-27" style="line;strokeWidth=1;fillColor=none;align=left;verticalAlign=middle;spacingTop=-1;spacingLeft=3;spacingRight=3;rotatable=0;labelPosition=right;points=[];portConstraint=eastwest;strokeColor=inherit;" vertex="1" parent="AtkAbLoTb4NKZcEU7tps-26">
          <mxGeometry y="26.91428484235491" width="394" height="8" as="geometry" />
        </mxCell>
        <mxCell id="AtkAbLoTb4NKZcEU7tps-28" value="+sendNotification(taxiDriver: TaxiDriver, info: String)" style="text;strokeColor=none;fillColor=none;align=left;verticalAlign=top;spacingLeft=4;spacingRight=4;overflow=hidden;rotatable=0;points=[[0,0.5],[1,0.5]];portConstraint=eastwest;" vertex="1" parent="AtkAbLoTb4NKZcEU7tps-26">
          <mxGeometry y="34.91428484235491" width="394" height="27" as="geometry" />
        </mxCell>
        <mxCell id="AtkAbLoTb4NKZcEU7tps-29" value="+confirmDispatch()" style="text;strokeColor=none;fillColor=none;align=left;verticalAlign=top;spacingLeft=4;spacingRight=4;overflow=hidden;rotatable=0;points=[[0,0.5],[1,0.5]];portConstraint=eastwest;" vertex="1" parent="AtkAbLoTb4NKZcEU7tps-26">
          <mxGeometry y="61.91428484235491" width="394" height="27" as="geometry" />
        </mxCell>
        <mxCell id="AtkAbLoTb4NKZcEU7tps-30" value="TrackingSystem" style="swimlane;fontStyle=1;align=center;verticalAlign=top;childLayout=stackLayout;horizontal=1;startSize=26.91428484235491;horizontalStack=0;resizeParent=1;resizeParentMax=0;resizeLast=0;collapsible=0;marginBottom=0;" vertex="1" parent="WIyWlLk6GJQsqaUBKTNV-1">
          <mxGeometry x="952" y="1250" width="241" height="88.9142848423549" as="geometry" />
        </mxCell>
        <mxCell id="AtkAbLoTb4NKZcEU7tps-31" style="line;strokeWidth=1;fillColor=none;align=left;verticalAlign=middle;spacingTop=-1;spacingLeft=3;spacingRight=3;rotatable=0;labelPosition=right;points=[];portConstraint=eastwest;strokeColor=inherit;" vertex="1" parent="AtkAbLoTb4NKZcEU7tps-30">
          <mxGeometry y="26.91428484235491" width="241" height="8" as="geometry" />
        </mxCell>
        <mxCell id="AtkAbLoTb4NKZcEU7tps-32" value="+trackTaxiStatus(taxi: Taxi)" style="text;strokeColor=none;fillColor=none;align=left;verticalAlign=top;spacingLeft=4;spacingRight=4;overflow=hidden;rotatable=0;points=[[0,0.5],[1,0.5]];portConstraint=eastwest;" vertex="1" parent="AtkAbLoTb4NKZcEU7tps-30">
          <mxGeometry y="34.91428484235491" width="241" height="27" as="geometry" />
        </mxCell>
        <mxCell id="AtkAbLoTb4NKZcEU7tps-33" value="+updateTaxiLocation(taxi: Taxi)" style="text;strokeColor=none;fillColor=none;align=left;verticalAlign=top;spacingLeft=4;spacingRight=4;overflow=hidden;rotatable=0;points=[[0,0.5],[1,0.5]];portConstraint=eastwest;" vertex="1" parent="AtkAbLoTb4NKZcEU7tps-30">
          <mxGeometry y="61.91428484235491" width="241" height="27" as="geometry" />
        </mxCell>
        <mxCell id="AtkAbLoTb4NKZcEU7tps-34" value="AdminDashboard" style="swimlane;fontStyle=1;align=center;verticalAlign=top;childLayout=stackLayout;horizontal=1;startSize=25.272727272727273;horizontalStack=0;resizeParent=1;resizeParentMax=0;resizeLast=0;collapsible=0;marginBottom=0;" vertex="1" parent="WIyWlLk6GJQsqaUBKTNV-1">
          <mxGeometry x="947" y="853" width="233" height="133.27272727272728" as="geometry" />
        </mxCell>
        <mxCell id="AtkAbLoTb4NKZcEU7tps-35" style="line;strokeWidth=1;fillColor=none;align=left;verticalAlign=middle;spacingTop=-1;spacingLeft=3;spacingRight=3;rotatable=0;labelPosition=right;points=[];portConstraint=eastwest;strokeColor=inherit;" vertex="1" parent="AtkAbLoTb4NKZcEU7tps-34">
          <mxGeometry y="25.272727272727273" width="233" height="8" as="geometry" />
        </mxCell>
        <mxCell id="AtkAbLoTb4NKZcEU7tps-36" value="+monitorSystemPerformance()" style="text;strokeColor=none;fillColor=none;align=left;verticalAlign=top;spacingLeft=4;spacingRight=4;overflow=hidden;rotatable=0;points=[[0,0.5],[1,0.5]];portConstraint=eastwest;" vertex="1" parent="AtkAbLoTb4NKZcEU7tps-34">
          <mxGeometry y="33.27272727272727" width="233" height="25" as="geometry" />
        </mxCell>
        <mxCell id="AtkAbLoTb4NKZcEU7tps-37" value="+displayQueueLengths()" style="text;strokeColor=none;fillColor=none;align=left;verticalAlign=top;spacingLeft=4;spacingRight=4;overflow=hidden;rotatable=0;points=[[0,0.5],[1,0.5]];portConstraint=eastwest;" vertex="1" parent="AtkAbLoTb4NKZcEU7tps-34">
          <mxGeometry y="58.27272727272727" width="233" height="25" as="geometry" />
        </mxCell>
        <mxCell id="AtkAbLoTb4NKZcEU7tps-38" value="+displayTaxiAvailability()" style="text;strokeColor=none;fillColor=none;align=left;verticalAlign=top;spacingLeft=4;spacingRight=4;overflow=hidden;rotatable=0;points=[[0,0.5],[1,0.5]];portConstraint=eastwest;" vertex="1" parent="AtkAbLoTb4NKZcEU7tps-34">
          <mxGeometry y="83.27272727272728" width="233" height="25" as="geometry" />
        </mxCell>
        <mxCell id="AtkAbLoTb4NKZcEU7tps-39" value="+displayDispatchHistory()" style="text;strokeColor=none;fillColor=none;align=left;verticalAlign=top;spacingLeft=4;spacingRight=4;overflow=hidden;rotatable=0;points=[[0,0.5],[1,0.5]];portConstraint=eastwest;" vertex="1" parent="AtkAbLoTb4NKZcEU7tps-34">
          <mxGeometry y="108.27272727272728" width="233" height="25" as="geometry" />
        </mxCell>
        <mxCell id="AtkAbLoTb4NKZcEU7tps-40" value="UserManagement" style="swimlane;fontStyle=1;align=center;verticalAlign=top;childLayout=stackLayout;horizontal=1;startSize=26.91428484235491;horizontalStack=0;resizeParent=1;resizeParentMax=0;resizeLast=0;collapsible=0;marginBottom=0;" vertex="1" parent="WIyWlLk6GJQsqaUBKTNV-1">
          <mxGeometry x="675" y="875" width="210" height="88.9142848423549" as="geometry" />
        </mxCell>
        <mxCell id="AtkAbLoTb4NKZcEU7tps-41" style="line;strokeWidth=1;fillColor=none;align=left;verticalAlign=middle;spacingTop=-1;spacingLeft=3;spacingRight=3;rotatable=0;labelPosition=right;points=[];portConstraint=eastwest;strokeColor=inherit;" vertex="1" parent="AtkAbLoTb4NKZcEU7tps-40">
          <mxGeometry y="26.91428484235491" width="210" height="8" as="geometry" />
        </mxCell>
        <mxCell id="AtkAbLoTb4NKZcEU7tps-42" value="+manageUserAccounts()" style="text;strokeColor=none;fillColor=none;align=left;verticalAlign=top;spacingLeft=4;spacingRight=4;overflow=hidden;rotatable=0;points=[[0,0.5],[1,0.5]];portConstraint=eastwest;" vertex="1" parent="AtkAbLoTb4NKZcEU7tps-40">
          <mxGeometry y="34.91428484235491" width="210" height="27" as="geometry" />
        </mxCell>
        <mxCell id="AtkAbLoTb4NKZcEU7tps-43" value="+configureSystemSettings()" style="text;strokeColor=none;fillColor=none;align=left;verticalAlign=top;spacingLeft=4;spacingRight=4;overflow=hidden;rotatable=0;points=[[0,0.5],[1,0.5]];portConstraint=eastwest;" vertex="1" parent="AtkAbLoTb4NKZcEU7tps-40">
          <mxGeometry y="61.91428484235491" width="210" height="27" as="geometry" />
        </mxCell>
        <mxCell id="AtkAbLoTb4NKZcEU7tps-44" value="RealTimeTracking" style="swimlane;fontStyle=1;align=center;verticalAlign=top;childLayout=stackLayout;horizontal=1;startSize=26.91428484235491;horizontalStack=0;resizeParent=1;resizeParentMax=0;resizeLast=0;collapsible=0;marginBottom=0;" vertex="1" parent="WIyWlLk6GJQsqaUBKTNV-1">
          <mxGeometry x="471" y="1250" width="228" height="88.9142848423549" as="geometry" />
        </mxCell>
        <mxCell id="AtkAbLoTb4NKZcEU7tps-45" style="line;strokeWidth=1;fillColor=none;align=left;verticalAlign=middle;spacingTop=-1;spacingLeft=3;spacingRight=3;rotatable=0;labelPosition=right;points=[];portConstraint=eastwest;strokeColor=inherit;" vertex="1" parent="AtkAbLoTb4NKZcEU7tps-44">
          <mxGeometry y="26.91428484235491" width="228" height="8" as="geometry" />
        </mxCell>
        <mxCell id="AtkAbLoTb4NKZcEU7tps-46" value="+displayRealTimeLocations()" style="text;strokeColor=none;fillColor=none;align=left;verticalAlign=top;spacingLeft=4;spacingRight=4;overflow=hidden;rotatable=0;points=[[0,0.5],[1,0.5]];portConstraint=eastwest;" vertex="1" parent="AtkAbLoTb4NKZcEU7tps-44">
          <mxGeometry y="34.91428484235491" width="228" height="27" as="geometry" />
        </mxCell>
        <mxCell id="AtkAbLoTb4NKZcEU7tps-47" value="+trackAssignedTaxi(taxi: Taxi)" style="text;strokeColor=none;fillColor=none;align=left;verticalAlign=top;spacingLeft=4;spacingRight=4;overflow=hidden;rotatable=0;points=[[0,0.5],[1,0.5]];portConstraint=eastwest;" vertex="1" parent="AtkAbLoTb4NKZcEU7tps-44">
          <mxGeometry y="61.91428484235491" width="228" height="27" as="geometry" />
        </mxCell>
        <mxCell id="AtkAbLoTb4NKZcEU7tps-48" value="FeedbackSystem" style="swimlane;fontStyle=1;align=center;verticalAlign=top;childLayout=stackLayout;horizontal=1;startSize=26.91428484235491;horizontalStack=0;resizeParent=1;resizeParentMax=0;resizeLast=0;collapsible=0;marginBottom=0;" vertex="1" parent="WIyWlLk6GJQsqaUBKTNV-1">
          <mxGeometry x="527" y="671" width="153" height="88.9142848423549" as="geometry" />
        </mxCell>
        <mxCell id="AtkAbLoTb4NKZcEU7tps-49" style="line;strokeWidth=1;fillColor=none;align=left;verticalAlign=middle;spacingTop=-1;spacingLeft=3;spacingRight=3;rotatable=0;labelPosition=right;points=[];portConstraint=eastwest;strokeColor=inherit;" vertex="1" parent="AtkAbLoTb4NKZcEU7tps-48">
          <mxGeometry y="26.91428484235491" width="153" height="8" as="geometry" />
        </mxCell>
        <mxCell id="AtkAbLoTb4NKZcEU7tps-50" value="+submitFeedback()" style="text;strokeColor=none;fillColor=none;align=left;verticalAlign=top;spacingLeft=4;spacingRight=4;overflow=hidden;rotatable=0;points=[[0,0.5],[1,0.5]];portConstraint=eastwest;" vertex="1" parent="AtkAbLoTb4NKZcEU7tps-48">
          <mxGeometry y="34.91428484235491" width="153" height="27" as="geometry" />
        </mxCell>
        <mxCell id="AtkAbLoTb4NKZcEU7tps-51" value="+generateReports()" style="text;strokeColor=none;fillColor=none;align=left;verticalAlign=top;spacingLeft=4;spacingRight=4;overflow=hidden;rotatable=0;points=[[0,0.5],[1,0.5]];portConstraint=eastwest;" vertex="1" parent="AtkAbLoTb4NKZcEU7tps-48">
          <mxGeometry y="61.91428484235491" width="153" height="27" as="geometry" />
        </mxCell>
        <mxCell id="AtkAbLoTb4NKZcEU7tps-52" value="SecuritySystem" style="swimlane;fontStyle=1;align=center;verticalAlign=top;childLayout=stackLayout;horizontal=1;startSize=26.91428484235491;horizontalStack=0;resizeParent=1;resizeParentMax=0;resizeLast=0;collapsible=0;marginBottom=0;" vertex="1" parent="WIyWlLk6GJQsqaUBKTNV-1">
          <mxGeometry x="730" y="671" width="166" height="88.9142848423549" as="geometry" />
        </mxCell>
        <mxCell id="AtkAbLoTb4NKZcEU7tps-53" style="line;strokeWidth=1;fillColor=none;align=left;verticalAlign=middle;spacingTop=-1;spacingLeft=3;spacingRight=3;rotatable=0;labelPosition=right;points=[];portConstraint=eastwest;strokeColor=inherit;" vertex="1" parent="AtkAbLoTb4NKZcEU7tps-52">
          <mxGeometry y="26.91428484235491" width="166" height="8" as="geometry" />
        </mxCell>
        <mxCell id="AtkAbLoTb4NKZcEU7tps-54" value="+protectUserData()" style="text;strokeColor=none;fillColor=none;align=left;verticalAlign=top;spacingLeft=4;spacingRight=4;overflow=hidden;rotatable=0;points=[[0,0.5],[1,0.5]];portConstraint=eastwest;" vertex="1" parent="AtkAbLoTb4NKZcEU7tps-52">
          <mxGeometry y="34.91428484235491" width="166" height="27" as="geometry" />
        </mxCell>
        <mxCell id="AtkAbLoTb4NKZcEU7tps-55" value="+ensureCompliance()" style="text;strokeColor=none;fillColor=none;align=left;verticalAlign=top;spacingLeft=4;spacingRight=4;overflow=hidden;rotatable=0;points=[[0,0.5],[1,0.5]];portConstraint=eastwest;" vertex="1" parent="AtkAbLoTb4NKZcEU7tps-52">
          <mxGeometry y="61.91428484235491" width="166" height="27" as="geometry" />
        </mxCell>
        <mxCell id="AtkAbLoTb4NKZcEU7tps-56" value="RouteManagement" style="swimlane;fontStyle=1;align=center;verticalAlign=top;childLayout=stackLayout;horizontal=1;startSize=25.91111077202691;horizontalStack=0;resizeParent=1;resizeParentMax=0;resizeLast=0;collapsible=0;marginBottom=0;" vertex="1" parent="WIyWlLk6GJQsqaUBKTNV-1">
          <mxGeometry x="749" y="1239" width="153" height="111.91111077202692" as="geometry" />
        </mxCell>
        <mxCell id="AtkAbLoTb4NKZcEU7tps-57" style="line;strokeWidth=1;fillColor=none;align=left;verticalAlign=middle;spacingTop=-1;spacingLeft=3;spacingRight=3;rotatable=0;labelPosition=right;points=[];portConstraint=eastwest;strokeColor=inherit;" vertex="1" parent="AtkAbLoTb4NKZcEU7tps-56">
          <mxGeometry y="25.91111077202691" width="153" height="8" as="geometry" />
        </mxCell>
        <mxCell id="AtkAbLoTb4NKZcEU7tps-58" value="+trackRoutes()" style="text;strokeColor=none;fillColor=none;align=left;verticalAlign=top;spacingLeft=4;spacingRight=4;overflow=hidden;rotatable=0;points=[[0,0.5],[1,0.5]];portConstraint=eastwest;" vertex="1" parent="AtkAbLoTb4NKZcEU7tps-56">
          <mxGeometry y="33.91111077202691" width="153" height="26" as="geometry" />
        </mxCell>
        <mxCell id="AtkAbLoTb4NKZcEU7tps-59" value="+optimizeRoutes()" style="text;strokeColor=none;fillColor=none;align=left;verticalAlign=top;spacingLeft=4;spacingRight=4;overflow=hidden;rotatable=0;points=[[0,0.5],[1,0.5]];portConstraint=eastwest;" vertex="1" parent="AtkAbLoTb4NKZcEU7tps-56">
          <mxGeometry y="59.91111077202691" width="153" height="26" as="geometry" />
        </mxCell>
        <mxCell id="AtkAbLoTb4NKZcEU7tps-60" value="+planRoutes()" style="text;strokeColor=none;fillColor=none;align=left;verticalAlign=top;spacingLeft=4;spacingRight=4;overflow=hidden;rotatable=0;points=[[0,0.5],[1,0.5]];portConstraint=eastwest;" vertex="1" parent="AtkAbLoTb4NKZcEU7tps-56">
          <mxGeometry y="85.91111077202692" width="153" height="26" as="geometry" />
        </mxCell>
        <mxCell id="AtkAbLoTb4NKZcEU7tps-61" value="TeraAskebari" style="swimlane;fontStyle=1;align=center;verticalAlign=top;childLayout=stackLayout;horizontal=1;startSize=24.700000762939453;horizontalStack=0;resizeParent=1;resizeParentMax=0;resizeLast=0;collapsible=0;marginBottom=0;" vertex="1" parent="WIyWlLk6GJQsqaUBKTNV-1">
          <mxGeometry x="161" y="898" width="112" height="36.70000076293945" as="geometry" />
        </mxCell>
        <mxCell id="AtkAbLoTb4NKZcEU7tps-62" style="line;strokeWidth=1;fillColor=none;align=left;verticalAlign=middle;spacingTop=-1;spacingLeft=3;spacingRight=3;rotatable=0;labelPosition=right;points=[];portConstraint=eastwest;strokeColor=inherit;" vertex="1" parent="AtkAbLoTb4NKZcEU7tps-61">
          <mxGeometry y="24.700000762939453" width="112" height="12" as="geometry" />
        </mxCell>
        <mxCell id="AtkAbLoTb4NKZcEU7tps-63" value="TaxiDriver" style="swimlane;fontStyle=1;align=center;verticalAlign=top;childLayout=stackLayout;horizontal=1;startSize=24.700000762939453;horizontalStack=0;resizeParent=1;resizeParentMax=0;resizeLast=0;collapsible=0;marginBottom=0;" vertex="1" parent="WIyWlLk6GJQsqaUBKTNV-1">
          <mxGeometry x="379" y="898" width="93" height="36.70000076293945" as="geometry" />
        </mxCell>
        <mxCell id="AtkAbLoTb4NKZcEU7tps-64" style="line;strokeWidth=1;fillColor=none;align=left;verticalAlign=middle;spacingTop=-1;spacingLeft=3;spacingRight=3;rotatable=0;labelPosition=right;points=[];portConstraint=eastwest;strokeColor=inherit;" vertex="1" parent="AtkAbLoTb4NKZcEU7tps-63">
          <mxGeometry y="24.700000762939453" width="93" height="12" as="geometry" />
        </mxCell>
        <mxCell id="AtkAbLoTb4NKZcEU7tps-65" value="CentralAdmin" style="swimlane;fontStyle=1;align=center;verticalAlign=top;childLayout=stackLayout;horizontal=1;startSize=24.700000762939453;horizontalStack=0;resizeParent=1;resizeParentMax=0;resizeLast=0;collapsible=0;marginBottom=0;" vertex="1" parent="WIyWlLk6GJQsqaUBKTNV-1">
          <mxGeometry x="1005" y="694" width="117" height="36.70000076293945" as="geometry" />
        </mxCell>
        <mxCell id="AtkAbLoTb4NKZcEU7tps-66" style="line;strokeWidth=1;fillColor=none;align=left;verticalAlign=middle;spacingTop=-1;spacingLeft=3;spacingRight=3;rotatable=0;labelPosition=right;points=[];portConstraint=eastwest;strokeColor=inherit;" vertex="1" parent="AtkAbLoTb4NKZcEU7tps-65">
          <mxGeometry y="24.700000762939453" width="117" height="12" as="geometry" />
        </mxCell>
        <mxCell id="AtkAbLoTb4NKZcEU7tps-67" value="&quot;Manages Queue&quot;" style="curved=1;startArrow=none;endArrow=open;endSize=12;exitX=0.5;exitY=1;entryX=0.5;entryY=0;rounded=0;" edge="1" parent="WIyWlLk6GJQsqaUBKTNV-1" source="AtkAbLoTb4NKZcEU7tps-61" target="AtkAbLoTb4NKZcEU7tps-18">
          <mxGeometry relative="1" as="geometry">
            <Array as="points" />
          </mxGeometry>
        </mxCell>
        <mxCell id="AtkAbLoTb4NKZcEU7tps-68" value="&quot;Registers&quot;" style="curved=1;startArrow=none;endArrow=open;endSize=12;exitX=0.49;exitY=0;entryX=0.94;entryY=1;rounded=0;" edge="1" parent="WIyWlLk6GJQsqaUBKTNV-1" source="AtkAbLoTb4NKZcEU7tps-63" target="AtkAbLoTb4NKZcEU7tps-4">
          <mxGeometry relative="1" as="geometry">
            <Array as="points">
              <mxPoint x="425" y="819" />
            </Array>
          </mxGeometry>
        </mxCell>
        <mxCell id="AtkAbLoTb4NKZcEU7tps-69" value="&quot;Monitors System&quot;" style="curved=1;startArrow=none;endArrow=open;endSize=12;exitX=0.5;exitY=1;entryX=0.5;entryY=0;rounded=0;" edge="1" parent="WIyWlLk6GJQsqaUBKTNV-1" source="AtkAbLoTb4NKZcEU7tps-65" target="AtkAbLoTb4NKZcEU7tps-34">
          <mxGeometry relative="1" as="geometry">
            <Array as="points" />
          </mxGeometry>
        </mxCell>
        <mxCell id="AtkAbLoTb4NKZcEU7tps-70" value="" style="curved=1;startArrow=block;startSize=16;startFill=0;endArrow=none;exitX=0.09;exitY=1;entryX=0;entryY=0.12;rounded=0;" edge="1" parent="WIyWlLk6GJQsqaUBKTNV-1" source="AtkAbLoTb4NKZcEU7tps-4" target="AtkAbLoTb4NKZcEU7tps-63">
          <mxGeometry relative="1" as="geometry">
            <Array as="points">
              <mxPoint x="197" y="819" />
            </Array>
          </mxGeometry>
        </mxCell>
        <mxCell id="AtkAbLoTb4NKZcEU7tps-71" value="" style="curved=1;startArrow=block;startSize=16;startFill=0;endArrow=none;exitX=0.16;exitY=1;entryX=0.5;entryY=0;rounded=0;" edge="1" parent="WIyWlLk6GJQsqaUBKTNV-1" source="AtkAbLoTb4NKZcEU7tps-4" target="AtkAbLoTb4NKZcEU7tps-61">
          <mxGeometry relative="1" as="geometry">
            <Array as="points">
              <mxPoint x="217" y="819" />
            </Array>
          </mxGeometry>
        </mxCell>
        <mxCell id="AtkAbLoTb4NKZcEU7tps-72" value="&quot;Operates&quot;" style="curved=1;startArrow=none;endArrow=open;endSize=12;exitX=0.49;exitY=1;entryX=0;entryY=0.09;rounded=0;" edge="1" parent="WIyWlLk6GJQsqaUBKTNV-1" source="AtkAbLoTb4NKZcEU7tps-63" target="AtkAbLoTb4NKZcEU7tps-9">
          <mxGeometry relative="1" as="geometry">
            <Array as="points">
              <mxPoint x="425" y="1398" />
            </Array>
          </mxGeometry>
        </mxCell>
        <mxCell id="AtkAbLoTb4NKZcEU7tps-73" value="&quot;Interacts&quot;" style="curved=1;startArrow=none;endArrow=open;endSize=12;exitX=0.5;exitY=1.01;entryX=0.5;entryY=0;rounded=0;" edge="1" parent="WIyWlLk6GJQsqaUBKTNV-1" source="AtkAbLoTb4NKZcEU7tps-18" target="AtkAbLoTb4NKZcEU7tps-22">
          <mxGeometry relative="1" as="geometry">
            <Array as="points" />
          </mxGeometry>
        </mxCell>
        <mxCell id="AtkAbLoTb4NKZcEU7tps-74" value="&quot;Assigns&quot;" style="curved=1;startArrow=none;endArrow=open;endSize=12;exitX=0.42;exitY=1;entryX=0;entryY=0.36;rounded=0;" edge="1" parent="WIyWlLk6GJQsqaUBKTNV-1" source="AtkAbLoTb4NKZcEU7tps-22" target="AtkAbLoTb4NKZcEU7tps-9">
          <mxGeometry relative="1" as="geometry">
            <Array as="points">
              <mxPoint x="172" y="1398" />
            </Array>
          </mxGeometry>
        </mxCell>
        <mxCell id="AtkAbLoTb4NKZcEU7tps-75" value="&quot;Notifies&quot;" style="curved=1;startArrow=none;endArrow=open;endSize=12;exitX=0.57;exitY=1;entryX=0.54;entryY=0;rounded=0;" edge="1" parent="WIyWlLk6GJQsqaUBKTNV-1" source="AtkAbLoTb4NKZcEU7tps-22" target="AtkAbLoTb4NKZcEU7tps-26">
          <mxGeometry relative="1" as="geometry">
            <Array as="points">
              <mxPoint x="256" y="1398" />
            </Array>
          </mxGeometry>
        </mxCell>
        <mxCell id="AtkAbLoTb4NKZcEU7tps-76" value="&quot;Tracks&quot;" style="curved=1;startArrow=none;endArrow=open;endSize=12;exitX=0.5;exitY=1;entryX=1;entryY=0.4;rounded=0;" edge="1" parent="WIyWlLk6GJQsqaUBKTNV-1" source="AtkAbLoTb4NKZcEU7tps-30" target="AtkAbLoTb4NKZcEU7tps-9">
          <mxGeometry relative="1" as="geometry">
            <Array as="points">
              <mxPoint x="1072" y="1398" />
            </Array>
          </mxGeometry>
        </mxCell>
        <mxCell id="AtkAbLoTb4NKZcEU7tps-77" value="&quot;Monitors&quot;" style="curved=1;startArrow=none;endArrow=open;endSize=12;exitX=0;exitY=0.78;entryX=1;entryY=0.37;rounded=0;" edge="1" parent="WIyWlLk6GJQsqaUBKTNV-1" source="AtkAbLoTb4NKZcEU7tps-34" target="AtkAbLoTb4NKZcEU7tps-18">
          <mxGeometry relative="1" as="geometry">
            <Array as="points">
              <mxPoint x="754" y="1034" />
            </Array>
          </mxGeometry>
        </mxCell>
        <mxCell id="AtkAbLoTb4NKZcEU7tps-78" value="&quot;Monitors&quot;" style="curved=1;startArrow=none;endArrow=open;endSize=12;exitX=0.53;exitY=1;entryX=0.5;entryY=0;rounded=0;" edge="1" parent="WIyWlLk6GJQsqaUBKTNV-1" source="AtkAbLoTb4NKZcEU7tps-34" target="AtkAbLoTb4NKZcEU7tps-30">
          <mxGeometry relative="1" as="geometry">
            <Array as="points">
              <mxPoint x="1072" y="1034" />
            </Array>
          </mxGeometry>
        </mxCell>
        <mxCell id="AtkAbLoTb4NKZcEU7tps-79" value="&quot;Tracks&quot;" style="curved=1;startArrow=none;endArrow=open;endSize=12;exitX=0.5;exitY=1;entryX=0.64;entryY=0;rounded=0;" edge="1" parent="WIyWlLk6GJQsqaUBKTNV-1" source="AtkAbLoTb4NKZcEU7tps-44" target="AtkAbLoTb4NKZcEU7tps-9">
          <mxGeometry relative="1" as="geometry">
            <Array as="points">
              <mxPoint x="585" y="1398" />
            </Array>
          </mxGeometry>
        </mxCell>
        <mxCell id="AtkAbLoTb4NKZcEU7tps-80" value="&quot;Receives Feedback&quot;" style="curved=1;startArrow=none;endArrow=open;endSize=12;exitX=0.5;exitY=1;entryX=0.1;entryY=0;rounded=0;" edge="1" parent="WIyWlLk6GJQsqaUBKTNV-1" source="AtkAbLoTb4NKZcEU7tps-48" target="AtkAbLoTb4NKZcEU7tps-40">
          <mxGeometry relative="1" as="geometry">
            <Array as="points">
              <mxPoint x="603" y="819" />
            </Array>
          </mxGeometry>
        </mxCell>
        <mxCell id="AtkAbLoTb4NKZcEU7tps-81" value="&quot;Protects Data&quot;" style="curved=1;startArrow=none;endArrow=open;endSize=12;exitX=0.5;exitY=1;entryX=0.57;entryY=0;rounded=0;" edge="1" parent="WIyWlLk6GJQsqaUBKTNV-1" source="AtkAbLoTb4NKZcEU7tps-52" target="AtkAbLoTb4NKZcEU7tps-40">
          <mxGeometry relative="1" as="geometry">
            <Array as="points">
              <mxPoint x="813" y="819" />
            </Array>
          </mxGeometry>
        </mxCell>
        <mxCell id="AtkAbLoTb4NKZcEU7tps-82" value="&quot;Tracks Routes&quot;" style="curved=1;startArrow=none;endArrow=open;endSize=12;exitX=0.5;exitY=1;entryX=1;entryY=0.3;rounded=0;" edge="1" parent="WIyWlLk6GJQsqaUBKTNV-1" source="AtkAbLoTb4NKZcEU7tps-56" target="AtkAbLoTb4NKZcEU7tps-9">
          <mxGeometry relative="1" as="geometry">
            <Array as="points">
              <mxPoint x="825" y="1398" />
            </Array>
          </mxGeometry>
        </mxCell>
      </root>
    </mxGraphModel>
  </diagram>
</mxfile>
